<svg width="15" height="17" viewBox="0 0 15 17" fill="none" xmlns="http://www.w3.org/2000/svg">
<path fill-rule="evenodd" clip-rule="evenodd" d="M0.774461 6.12617C0.5 6.72291 0.5 7.40179 0.5 8.75955V12.9999C0.5 14.8856 0.5 15.8284 1.08579 16.4142C1.67157 16.9999 2.61438 16.9999 4.5 16.9999H5V14V12C5 11.4477 5.44772 11 6 11H9C9.55228 11 10 11.4477 10 12V14V16.9999H10.5C12.3856 16.9999 13.3284 16.9999 13.9142 16.4142C14.5 15.8284 14.5 14.8856 14.5 12.9999V8.75955C14.5 7.40179 14.5 6.72291 14.2255 6.12617C13.9511 5.52943 13.4356 5.08763 12.4047 4.20401L11.4047 3.34687C9.54143 1.74974 8.60977 0.951172 7.5 0.951172C6.39023 0.951172 5.45857 1.74974 3.59525 3.34687L2.59525 4.20401C1.56437 5.08763 1.04892 5.52943 0.774461 6.12617Z" fill="white"/>
</svg>
