<svg width="22" height="24" viewBox="0 0 22 24" fill="none" xmlns="http://www.w3.org/2000/svg">
<path d="M21.0142 11.1034C21.0142 13.3236 20.2142 15.376 18.8687 16.9992C17.0687 19.238 14.2142 20.6746 11.0141 20.6746C11.0141 20.6746 7.49744 21.9659 5.15754 22.4553C4.34744 22.6248 3.44854 22.0692 3.44854 21.3173C3.44854 20.4026 5.01414 18.753 5.01414 18.753C3.89934 17.959 2.96724 16.9462 2.28404 15.7808C1.47424 14.3994 1.01414 12.8036 1.01414 11.1034C1.01414 9.39874 1.47474 7.79968 2.28404 6.41585C3.03364 5.134 4.08244 4.03681 5.34144 3.21141C6.95964 2.12929 8.90504 1.51365 11.0141 1.51365C16.5414 1.51365 21.0142 5.80473 21.0142 11.1034Z" stroke="#707070" stroke-width="1.5" stroke-linecap="round" stroke-linejoin="round"/>
</svg>
