<svg width="24" height="24" viewBox="0 0 24 24" fill="none" xmlns="http://www.w3.org/2000/svg">
<path d="M7.48047 18.35L10.5805 20.75C10.9805 21.15 11.8805 21.35 12.4805 21.35H16.2805C17.4805 21.35 18.7805 20.45 19.0805 19.25L21.4805 11.95C21.9805 10.55 21.0805 9.34999 19.5805 9.34999H15.5805C14.9805 9.34999 14.4805 8.84999 14.5805 8.14999L15.0805 4.94999C15.2805 4.04999 14.6805 3.04999 13.7805 2.74999C12.9805 2.44999 11.9805 2.84999 11.5805 3.44999L7.48047 9.54999" stroke="#707070" stroke-width="1.5" stroke-miterlimit="10"/>
<path d="M2.38086 18.3499V8.54992C2.38086 7.14992 2.98086 6.64992 4.38086 6.64992H5.38086C6.78086 6.64992 7.38086 7.14992 7.38086 8.54992V18.3499C7.38086 19.7499 6.78086 20.2499 5.38086 20.2499H4.38086C2.98086 20.2499 2.38086 19.7499 2.38086 18.3499Z" stroke="#707070" stroke-width="1.5" stroke-linecap="round" stroke-linejoin="round"/>
</svg>
