<svg width="31" height="30" viewBox="0 0 31 30" fill="none" xmlns="http://www.w3.org/2000/svg">
<path d="M22.3183 10.2034C22.5873 10.1324 22.8109 9.94563 22.9286 9.69352C23.0463 9.44141 23.0459 9.15005 22.9276 8.89823L20.8517 4.48024C20.697 4.15101 20.3658 3.94099 20.002 3.94144C19.6383 3.94189 19.3076 4.15273 19.1537 4.48234L18.2379 6.44389C18.2052 6.43102 18.1714 6.41986 18.1366 6.41054C12.7024 4.95445 7.11673 8.17934 5.66064 13.6135C4.20456 19.0477 7.42944 24.6334 12.8636 26.0895C18.2978 27.5456 23.8835 24.3207 25.3396 18.8865C25.8026 17.1584 25.7922 15.4123 25.3866 13.7889C25.2612 13.2866 24.7522 12.9811 24.2499 13.1066C23.7475 13.2321 23.4421 13.741 23.5675 14.2433C23.8979 15.5658 23.907 16.9884 23.5285 18.4012C22.3404 22.8351 17.7829 25.4664 13.3489 24.2784C8.91498 23.0903 6.28368 18.5327 7.47175 14.0988C8.6404 9.73737 13.0692 7.12011 17.4337 8.16643L16.5097 10.1456C16.3558 10.4752 16.4065 10.864 16.6397 11.1432C16.873 11.4224 17.2466 11.5414 17.5984 11.4486L22.3183 10.2034Z" fill="#FAFFFD"/>
<path d="M12.5098 20H13.3887V12.9541H12.5146L10.6396 14.3018V15.2295L12.4316 13.9307H12.5098V20ZM17.7393 20.166C18.2178 20.166 18.641 20.0635 19.0088 19.8584C19.3766 19.6533 19.6647 19.3701 19.873 19.0088C20.0846 18.6442 20.1904 18.2259 20.1904 17.7539V17.7441C20.1904 17.2884 20.0928 16.8848 19.8975 16.5332C19.7021 16.1784 19.4336 15.9001 19.0918 15.6982C18.75 15.4932 18.3577 15.3906 17.915 15.3906C17.7035 15.3906 17.5016 15.4199 17.3096 15.4785C17.1208 15.5339 16.9499 15.6152 16.7969 15.7227C16.6439 15.8301 16.5153 15.9635 16.4111 16.123H16.333L16.5723 13.7402H19.7998V12.9541H15.8789L15.5078 17.002H16.2695C16.3151 16.9173 16.3639 16.8408 16.416 16.7725C16.4714 16.7041 16.5299 16.6406 16.5918 16.582C16.7448 16.4388 16.9189 16.3314 17.1143 16.2598C17.3128 16.1882 17.5293 16.1523 17.7637 16.1523C18.0697 16.1523 18.3398 16.2207 18.5742 16.3574C18.8086 16.4941 18.9925 16.6846 19.126 16.9287C19.2627 17.1696 19.3311 17.4463 19.3311 17.7588V17.7686C19.3311 18.0843 19.2643 18.3643 19.1309 18.6084C18.9974 18.8525 18.8118 19.0446 18.5742 19.1846C18.3366 19.3213 18.0615 19.3896 17.749 19.3896C17.4756 19.3896 17.2282 19.3359 17.0068 19.2285C16.7887 19.1211 16.6113 18.9762 16.4746 18.7939C16.3411 18.6084 16.2598 18.4033 16.2305 18.1787L16.2256 18.1396H15.3809L15.3857 18.1934C15.4215 18.5677 15.542 18.9046 15.7471 19.2041C15.9554 19.5003 16.2305 19.7347 16.5723 19.9072C16.9141 20.0798 17.3031 20.166 17.7393 20.166Z" fill="#FAFFFD"/>
</svg>
