<svg width="18" height="12" viewBox="0 0 18 12" fill="none" xmlns="http://www.w3.org/2000/svg">
<path fill-rule="evenodd" clip-rule="evenodd" d="M17.77 6C17.77 5.64119 17.576 5.40556 17.1878 4.93429C15.7677 3.21014 12.6355 0 8.99977 0C5.36403 0 2.23183 3.21014 0.811736 4.93429C0.423573 5.40556 0.229492 5.64119 0.229492 6C0.229492 6.35881 0.423573 6.59444 0.811735 7.06571C2.23183 8.78986 5.36403 12 8.99977 12C12.6355 12 15.7677 8.78986 17.1878 7.06571C17.576 6.59444 17.77 6.35881 17.77 6ZM8.99977 9C10.6566 9 11.9998 7.65685 11.9998 6C11.9998 4.34315 10.6566 3 8.99977 3C7.34292 3 5.99977 4.34315 5.99977 6C5.99977 7.65685 7.34292 9 8.99977 9Z" fill="#707070"/>
</svg>
