<svg width="31" height="30" viewBox="0 0 31 30" fill="none" xmlns="http://www.w3.org/2000/svg">
<path d="M8.68172 10.2034C8.4127 10.1324 8.1891 9.94563 8.07139 9.69352C7.95369 9.44141 7.95405 9.15005 8.07238 8.89823L10.1483 4.48024C10.303 4.15101 10.6342 3.94099 10.998 3.94144C11.3617 3.94189 11.6924 4.15273 11.8463 4.48234L12.7621 6.44389C12.7948 6.43102 12.8286 6.41986 12.8634 6.41054C18.2976 4.95445 23.8833 8.17934 25.3394 13.6135C26.7954 19.0477 23.5706 24.6334 18.1364 26.0895C12.7022 27.5456 7.11651 24.3207 5.66043 18.8865C5.1974 17.1584 5.20782 15.4123 5.61336 13.7889C5.73884 13.2866 6.24779 12.9811 6.75012 13.1066C7.25245 13.2321 7.55794 13.741 7.43246 14.2433C7.10209 15.5658 7.09299 16.9884 7.47154 18.4012C8.65961 22.8351 13.2171 25.4664 17.6511 24.2784C22.085 23.0903 24.7163 18.5327 23.5282 14.0988C22.3596 9.73737 17.9308 7.12011 13.5663 8.16643L14.4903 10.1456C14.6442 10.4752 14.5935 10.864 14.3603 11.1432C14.127 11.4224 13.7534 11.5414 13.4016 11.4486L8.68172 10.2034Z" fill="#FAFFFD"/>
<path d="M12.5098 20H13.3887V12.9541H12.5146L10.6396 14.3018V15.2295L12.4316 13.9307H12.5098V20ZM17.7393 20.166C18.2178 20.166 18.641 20.0635 19.0088 19.8584C19.3766 19.6533 19.6647 19.3701 19.873 19.0088C20.0846 18.6442 20.1904 18.2259 20.1904 17.7539V17.7441C20.1904 17.2884 20.0928 16.8848 19.8975 16.5332C19.7021 16.1784 19.4336 15.9001 19.0918 15.6982C18.75 15.4932 18.3577 15.3906 17.915 15.3906C17.7035 15.3906 17.5016 15.4199 17.3096 15.4785C17.1208 15.5339 16.9499 15.6152 16.7969 15.7227C16.6439 15.8301 16.5153 15.9635 16.4111 16.123H16.333L16.5723 13.7402H19.7998V12.9541H15.8789L15.5078 17.002H16.2695C16.3151 16.9173 16.3639 16.8408 16.416 16.7725C16.4714 16.7041 16.5299 16.6406 16.5918 16.582C16.7448 16.4388 16.9189 16.3314 17.1143 16.2598C17.3128 16.1882 17.5293 16.1523 17.7637 16.1523C18.0697 16.1523 18.3398 16.2207 18.5742 16.3574C18.8086 16.4941 18.9925 16.6846 19.126 16.9287C19.2627 17.1696 19.3311 17.4463 19.3311 17.7588V17.7686C19.3311 18.0843 19.2643 18.3643 19.1309 18.6084C18.9974 18.8525 18.8118 19.0446 18.5742 19.1846C18.3366 19.3213 18.0615 19.3896 17.749 19.3896C17.4756 19.3896 17.2282 19.3359 17.0068 19.2285C16.7887 19.1211 16.6113 18.9762 16.4746 18.7939C16.3411 18.6084 16.2598 18.4033 16.2305 18.1787L16.2256 18.1396H15.3809L15.3857 18.1934C15.4215 18.5677 15.542 18.9046 15.7471 19.2041C15.9554 19.5003 16.2305 19.7347 16.5723 19.9072C16.9141 20.0798 17.3031 20.166 17.7393 20.166Z" fill="#FAFFFD"/>
</svg>
