<svg width="24" height="24" viewBox="0 0 24 24" fill="none" xmlns="http://www.w3.org/2000/svg">
<path d="M13.9125 1.32031L13.9029 1.32098L13.8932 1.32192C13.7112 1.33967 13.5406 1.4008 13.3915 1.49427C13.243 1.58734 13.1204 1.70938 13.0256 1.84632C12.9308 1.98314 12.8635 2.13498 12.8227 2.29152C12.7843 2.43911 12.7692 2.59204 12.7771 2.7435V8.01914C5.85457 9.14517 1.41135 15.0017 1.31799 20.9894L1.3179 20.9894V21C1.3179 21.2149 1.3454 21.4652 1.43709 21.6889C1.51864 21.8878 1.75998 22.2924 2.27284 22.2924C2.62361 22.2924 2.88127 22.1106 3.05075 21.9035C3.1982 21.7234 3.30885 21.4909 3.40431 21.2577L3.40942 21.2452L3.41404 21.2325C3.90864 19.873 4.68955 18.836 6.16282 18.07C7.57177 17.3375 9.64674 16.8359 12.7771 16.6146V21.2565C12.7692 21.408 12.7843 21.5609 12.8227 21.7085C12.8635 21.865 12.9308 22.0169 13.0256 22.1537C13.1204 22.2906 13.243 22.4127 13.3915 22.5057C13.5406 22.5992 13.7112 22.6603 13.8932 22.6781L13.9029 22.679L13.9125 22.6797C14.1318 22.6948 14.3426 22.6383 14.5211 22.5293C14.6737 22.4361 14.7946 22.3099 14.8831 22.1699L22.3541 13.0431L22.3658 13.0289L22.3767 13.014C22.5813 12.7345 22.6821 12.3928 22.6821 12.0556C22.6821 11.7183 22.5813 11.3766 22.3767 11.0971L22.367 11.0839L22.3567 11.0711L14.8844 1.83215C14.7958 1.6913 14.6745 1.56436 14.5211 1.47068C14.3426 1.36168 14.1318 1.30519 13.9125 1.32031Z" stroke="#707070" stroke-width="1.3642"/>
</svg>
