<svg width="25" height="20" viewBox="0 0 25 20" fill="none" xmlns="http://www.w3.org/2000/svg">
<path d="M23.3767 2.63186C22.147 1.63867 17.8103 0.859375 12.75 0.859375C7.6897 0.859375 3.35302 1.63867 2.1233 2.63186C0.993188 3.54297 0.75 7.66211 0.75 10C0.75 12.3379 0.993188 16.457 2.1233 17.3682C3.35302 18.3613 7.6897 19.1406 12.75 19.1406C17.8103 19.1406 22.147 18.3613 23.3767 17.3681C24.5069 16.457 24.75 12.3379 24.75 10C24.75 7.66211 24.5069 3.54297 23.3767 2.63186ZM16.3506 10.1128L10.7798 13.438C10.7388 13.4614 10.689 13.4629 10.6479 13.4395C10.6069 13.416 10.5813 13.372 10.5813 13.3252V10V6.67478C10.5813 6.62716 10.6069 6.58394 10.6479 6.5605C10.689 6.53706 10.7388 6.53852 10.7798 6.56195L16.3506 9.88717C16.3902 9.91061 16.4143 9.95308 16.4143 9.99995C16.4143 10.0454 16.3901 10.0893 16.3506 10.1128Z" fill="white"/>
</svg>
